<svg aria-hidden="true" style="position: absolute; width: 0; height: 0; overflow: hidden;" version="1.1" xmlns="http://www.w3.org/2000/svg" xmlns:xlink="http://www.w3.org/1999/xlink">
<defs>
<symbol id="icon-burger" viewBox="0 0 46 32">
<path fill="none" stroke="#d41443" style="stroke: var(--color1, #d41443)" stroke-linejoin="miter" stroke-linecap="butt" stroke-miterlimit="4" stroke-width="2.2857" d="M0 2.286h45.714"></path>
<path fill="none" stroke="#d41443" style="stroke: var(--color1, #d41443)" stroke-linejoin="miter" stroke-linecap="butt" stroke-miterlimit="4" stroke-width="2.2857" d="M0 16h45.714"></path>
<path fill="none" stroke="#d41443" style="stroke: var(--color1, #d41443)" stroke-linejoin="miter" stroke-linecap="butt" stroke-miterlimit="4" stroke-width="2.2857" d="M0 29.714h45.714"></path>
</symbol>
<symbol id="icon-arrow-buy" viewBox="0 0 19 32">
<path fill="none" stroke-linejoin="round" stroke-linecap="round" stroke-miterlimit="4" stroke-width="6.4" d="M3.2 3.2l12.8 12.8-12.8 12.8"></path>
</symbol>
<symbol id="icon-close" viewBox="0 0 32 32">
<path fill="none" stroke-linejoin="miter" stroke-linecap="butt" stroke-miterlimit="4" stroke-width="2" d="M2.519 2l26.963 28"></path>
<path fill="none" stroke-linejoin="miter" stroke-linecap="butt" stroke-miterlimit="4" stroke-width="2" d="M2 29.481l28-26.963"></path>
</symbol>
<symbol id="icon-coments-house" viewBox="0 0 35 32">
<path d="M34.472 15.381c0.633-0.649 0.572-1.644-0.136-2.222l-15.601-12.734c-0.708-0.578-1.843-0.566-2.537 0.027l-15.654 13.386c-0.693 0.593-0.727 1.587-0.075 2.219l0.392 0.381c0.651 0.632 1.704 0.707 2.349 0.168l1.17-0.977v14.308c0 0.878 0.763 1.588 1.703 1.588h6.102c0.94 0 1.703-0.711 1.703-1.588v-10.010h7.783v10.010c-0.014 0.877 0.659 1.588 1.6 1.588h6.467c0.94 0 1.703-0.711 1.703-1.588v-14.106c0 0 0.323 0.264 0.722 0.591s1.234 0.065 1.866-0.585l0.444-0.455z"></path>
</symbol>
<symbol id="icon-coments-marks" viewBox="0 0 43 32">
<path fill="#e1e1e1" style="fill: var(--color4, #e1e1e1)" d="M32.014 0c1.929 0 3.75 0.52 5.464 1.561s3.107 2.537 4.179 4.488c1.029 1.951 1.543 4.249 1.543 6.894s-0.643 5.225-1.929 7.74c-0.429 0.911-1.2 2.081-2.314 3.512-1.157 1.431-2.229 2.667-3.214 3.707l-4.050 4.098-2.893-4.813c2.014-1.257 3.793-2.818 5.336-4.683 1.543-1.821 2.314-3.491 2.314-5.008 0-0.78-0.171-1.409-0.514-1.886-1.5 1.084-3.171 1.626-5.014 1.626-1.329 0-2.593-0.412-3.793-1.236-1.243-0.78-2.229-1.821-2.957-3.122-0.771-1.258-1.157-2.558-1.157-3.902 0-1.518 0.45-2.97 1.35-4.358 0.857-1.388 1.993-2.515 3.407-3.382 1.371-0.824 2.786-1.236 4.243-1.236zM8.936 0c1.929 0 3.75 0.52 5.464 1.561s3.107 2.537 4.179 4.488c1.029 1.951 1.543 4.249 1.543 6.894 0 1.864-0.236 3.534-0.707 5.008-0.471 1.518-1.286 3.1-2.443 4.748-1.114 1.561-2.164 2.862-3.15 3.902-0.986 1.084-2.7 2.884-5.143 5.398l-2.893-4.813c2.014-1.257 3.793-2.818 5.336-4.683 1.543-1.821 2.314-3.491 2.314-5.008 0-0.78-0.171-1.409-0.514-1.886-1.5 1.084-3.171 1.626-5.014 1.626-1.329 0-2.593-0.412-3.793-1.236-1.243-0.78-2.229-1.821-2.957-3.122-0.771-1.258-1.157-2.558-1.157-3.902 0-1.518 0.429-2.97 1.286-4.358s1.993-2.515 3.407-3.382c1.371-0.824 2.786-1.236 4.243-1.236z"></path>
</symbol>
<symbol id="icon-footer-facebook" viewBox="0 0 16 32">
<path d="M14.143 15.972h-4.034v14.865h-6.112v-14.865h-2.907v-5.224h2.907v-3.381c0-2.418 1.142-6.203 6.166-6.203l4.527 0.019v5.071h-3.285c-0.539 0-1.296 0.271-1.296 1.424v3.075h4.567l-0.534 5.219z"></path>
</symbol>
<symbol id="icon-footer-github" viewBox="0 0 32 32">
<path d="M16 0c-8.788 0-16 7.212-16 16 0 7.499 5.262 14.312 12.25 16v-5.293c-0.692 0.152-1.33 0.156-2.034-0.052-0.946-0.279-1.714-0.909-2.284-1.869-0.364-0.613-1.008-1.278-1.68-1.23l-0.165-1.868c1.453-0.124 2.711 0.886 3.457 2.14 0.332 0.558 0.713 0.884 1.203 1.029 0.473 0.14 0.982 0.072 1.574-0.137 0.149-1.186 0.692-1.63 1.102-2.255v-0.001c-4.167-0.622-5.828-2.832-6.488-4.578-0.874-2.317-0.405-5.212 1.14-7.041 0.030-0.036 0.084-0.129 0.063-0.194-0.708-2.139 0.155-3.909 0.187-4.097 0.817 0.242 0.95-0.243 3.551 1.337l0.449 0.27c0.188 0.112 0.129 0.048 0.317 0.034 1.086-0.295 2.23-0.458 3.358-0.472 1.136 0.015 2.273 0.178 3.404 0.484l0.145 0.015c-0.013-0.002 0.040-0.009 0.127-0.062 3.248-1.968 3.132-1.324 4.003-1.608 0.032 0.188 0.883 1.987 0.182 4.099-0.095 0.291 2.816 2.956 1.203 7.235-0.659 1.746-2.32 3.957-6.487 4.578v0.001c0.534 0.814 1.176 1.247 1.173 2.927v6.608c6.988-1.688 12.25-8.501 12.25-16 0-8.788-7.212-16-16-16v0z"></path>
</symbol>
<symbol id="icon-footer-telegram" viewBox="0 0 44 32">
<path d="M17.343 21.048l-0.675 8.86c0.966 0 1.384-0.387 1.885-0.852l4.527-4.038 9.381 6.412c1.72 0.895 2.933 0.424 3.397-1.477l6.159-26.93c0.546-2.374-0.92-3.302-2.596-2.72l-36.194 12.933c-2.47 0.895-2.433 2.18-0.42 2.762l9.253 2.686 21.494-12.552c1.012-0.625 1.931-0.279 1.175 0.346l-17.386 14.57z"></path>
</symbol>
<symbol id="icon-IceCream" viewBox="0 0 127 32">
<path fill="#fff" style="fill: var(--color2, #fff)" d="M31.36 16.32c0 8.66-6.877 15.68-15.36 15.68s-15.36-7.020-15.36-15.68c0-8.66 6.877-15.68 15.36-15.68s15.36 7.020 15.36 15.68z"></path>
<path fill="#d41443" style="fill: var(--color1, #d41443)" d="M11.849 0.562c-7.406 2.243-11.849 8.073-11.849 15.442 0 6.023 3.091 11.277 8.179 13.904 2.64 1.346 3.027 0.384 0.58-1.474-1.739-1.41-2.061-2.050-2.061-4.421 0-1.666-0.386-3.011-0.966-3.524-1.159-0.961-1.288-3.46-0.129-4.357 0.451-0.384 0.902-1.666 0.966-2.819 0.322-4.229 4.894-8.201 9.467-8.201s9.145 3.973 9.466 8.201c0.064 1.153 0.515 2.435 0.966 2.819 1.159 0.897 1.030 3.396-0.129 4.357-0.58 0.513-0.966 1.858-0.966 3.524 0 2.371-0.322 3.011-2.061 4.421-2.705 2.114-1.932 2.883 1.095 1.025 4.25-2.627 7.406-8.33 7.406-13.391 0-10.124-10.561-18.325-19.963-15.506z"></path>
<path fill="#d41443" style="fill: var(--color1, #d41443)" d="M12.686 7.994c-1.159 0.513-2.125 1.153-2.125 1.538 0 0.705 3.477 1.986 5.474 1.986s5.474-1.281 5.474-1.986c0-0.769-3.993-2.499-5.603-2.499-0.644 0.064-2.125 0.449-3.22 0.961z"></path>
<path fill="#d41443" style="fill: var(--color1, #d41443)" d="M45.851 11.326c-0.966 0.256-1.159 1.089-1.159 5.703v5.382h4.572l-0.193-5.574c-0.193-5.831-0.451-6.279-3.22-5.51z"></path>
<path fill="#d41443" style="fill: var(--color1, #d41443)" d="M53.386 11.646c-2.125 1.153-2.898 2.563-2.898 5.318 0 3.78 2.061 5.574 5.86 5.318 2.576-0.192 2.833-0.384 3.027-1.986s0.064-1.73-1.932-1.602c-2.061 0.192-2.125 0.064-2.125-2.050s0.129-2.243 1.996-2.050c1.546 0.128 2.125-0.128 2.383-1.089 0.129-0.641 0-1.538-0.386-1.922-0.902-0.897-4.25-0.897-5.925 0.064z"></path>
<path fill="#d41443" style="fill: var(--color1, #d41443)" d="M61.049 11.71c-0.193 0.513-0.258 3.011-0.129 5.638l0.193 4.741h4.186c3.864 0 4.186-0.128 4.379-1.474 0.193-1.217-0.064-1.41-2.060-1.41-1.288 0-2.319-0.32-2.319-0.641 0-0.384 0.902-0.641 1.932-0.641 1.481 0 1.932-0.256 1.932-1.281s-0.451-1.281-1.932-1.281c-1.030 0-1.932-0.32-1.932-0.641 0-0.384 0.837-0.641 1.868-0.641 1.804 0 3.027-1.41 2.254-2.627-0.58-0.961-7.985-0.705-8.372 0.256z"></path>
<path fill="#d41443" style="fill: var(--color1, #d41443)" d="M73.993 11.518c-2.125 0.833-2.962 2.307-3.027 4.998-0.065 4.613 1.803 6.215 6.633 5.767 1.868-0.128 2.189-0.448 2.189-1.794 0-1.41-0.257-1.602-2.061-1.41-1.546 0.128-2.125-0.064-2.447-1.089-0.58-1.986 0.644-3.588 2.705-3.588 1.224 0 1.868-0.384 1.996-1.217 0.451-2.050-2.833-3.011-5.989-1.666z"></path>
<path fill="#d41443" style="fill: var(--color1, #d41443)" d="M81.914 11.262c-0.323 0.256-0.515 2.883-0.515 5.831v5.382l2.060-0.192c1.61-0.128 2.19-0.577 2.512-1.794l0.386-1.602 0.515 1.73c0.387 1.474 0.837 1.794 2.512 1.794 2.769 0 3.091-0.448 1.932-2.691-0.708-1.41-0.837-2.114-0.322-2.627 0.837-0.833 0.902-3.652 0.129-4.87-0.644-1.025-8.371-1.858-9.208-0.961zM87.194 14.722c0 0.705-0.257 1.281-0.644 1.281-0.322 0-0.644-0.577-0.644-1.281s0.322-1.281 0.644-1.281c0.387 0 0.644 0.577 0.644 1.281z"></path>
<path fill="#d41443" style="fill: var(--color1, #d41443)" d="M93.441 11.326c-0.258 0.192-0.451 2.819-0.451 5.767v5.318h4.186c4.057 0 4.186-0.064 4.186-1.602 0-1.346-0.322-1.602-1.932-1.602-1.030 0-1.932-0.32-1.932-0.641 0-0.384 0.708-0.641 1.61-0.641 1.159 0 1.61-0.32 1.61-1.281s-0.451-1.281-1.61-1.281c-0.902 0-1.61-0.32-1.61-0.641 0-0.384 0.902-0.641 1.932-0.641 1.61 0 1.932-0.256 1.932-1.602 0-1.538-0.193-1.602-3.735-1.602-2.061 0-3.992 0.192-4.186 0.448z"></path>
<path fill="#d41443" style="fill: var(--color1, #d41443)" d="M106.45 11.262c-1.16 0.32-4.122 8.842-3.542 10.252 0.515 1.281 3.413 1.153 4.186-0.192 0.579-1.089 0.644-1.089 1.803 0 1.482 1.281 4.701 1.474 4.701 0.256 0-0.384-0.644-2.947-1.482-5.574-1.288-4.229-1.674-4.806-3.027-4.934-0.902 0-2.061 0.064-2.64 0.192zM108.253 17.093c-0.193 0.641-0.322 0.256-0.322-0.769 0-1.089 0.129-1.538 0.322-1.153 0.129 0.448 0.129 1.346 0 1.922z"></path>
<path fill="#d41443" style="fill: var(--color1, #d41443)" d="M115.723 11.326c-0.58 0.192-0.837 1.986-0.837 5.703v5.382h1.868c1.61 0 1.932-0.32 2.189-1.794 0.257-1.666 0.257-1.666 0.772-0.32 0.258 0.833 0.902 1.474 1.352 1.474 0.515 0 1.224-0.641 1.546-1.474 0.515-1.346 0.58-1.346 0.58 0.384 0.065 1.602 0.257 1.794 2.061 1.602l1.996-0.192 0.065-5.318c0.129-4.934 0.064-5.318-1.288-5.638-2.061-0.513-3.799 0.705-4.379 3.076l-0.451 2.114-0.708-2.243c-0.902-3.011-2.254-3.78-4.765-2.755z"></path>
<path fill="#d41443" style="fill: var(--color1, #d41443)" d="M9.016 11.967c-0.193 0.256-0.386 1.089-0.386 1.922 0 1.474 0.064 1.474 7.406 1.474s7.406 0 7.406-1.474c0-2.178-0.58-2.435-2.64-1.41-2.318 1.217-7.213 1.217-9.531 0-1.030-0.513-1.996-0.705-2.254-0.513z"></path>
<path fill="#d41443" style="fill: var(--color1, #d41443)" d="M7.148 17.669c-1.030 1.089 0.708 1.538 5.731 1.538h5.409v2.243c0 1.217 0.322 2.243 0.644 2.243 0.386 0 0.644-0.961 0.644-2.178 0-2.114 0.129-2.243 2.576-2.435 1.417-0.128 2.576-0.513 2.576-0.833 0-0.705-16.872-1.281-17.581-0.577z"></path>
<path fill="#d41443" style="fill: var(--color1, #d41443)" d="M8.629 23.308c0 3.524 1.224 4.229 7.406 4.229s7.406-0.705 7.406-4.229c0-1.538-0.322-2.178-0.966-2.178-0.58 0-0.966 0.577-0.966 1.538 0 3.588-4.894 3.908-5.603 0.384-0.322-1.858-0.515-1.922-3.8-1.922h-3.477v2.178z"></path>
<path fill="#d41443" style="fill: var(--color1, #d41443)" d="M12.622 30.548c0.386 2.050 6.955 1.858 6.955-0.128 0-0.705-0.837-0.961-3.606-0.961-3.027 0-3.542 0.192-3.349 1.089z"></path>
</symbol>
<symbol id="icon-made-left" viewBox="0 0 21 32">
<path fill="#ffa5ba" style="fill: var(--color5, #ffa5ba)" d="M2.333 0.144c-0.35 0.188-0.553 0.563-0.553 1.006 0.006 0.813 0.209 1.556 0.614 2.2l0.178 0.294-0.338 0.381c-0.381 0.425-0.473 0.581-0.645 1.088-0.141 0.412-0.153 1.162-0.031 1.581 0.43 1.438 1.854 2.269 3.248 1.9 0.473-0.125 0.761-0.281 1.203-0.656l0.375-0.312 0.35 0.175c0.196 0.1 0.528 0.244 0.743 0.325l0.381 0.138v0.7c0 1.106 0.227 1.762 0.81 2.356s1.498 0.9 2.29 0.762c0.565-0.1 1.117-0.381 1.492-0.762 0.583-0.594 0.81-1.25 0.81-2.356v-0.7l0.387-0.138c0.209-0.081 0.54-0.225 0.737-0.325l0.35-0.175 0.375 0.312c0.442 0.375 0.731 0.531 1.203 0.656 1.394 0.369 2.818-0.462 3.248-1.9 0.123-0.419 0.111-1.169-0.031-1.581-0.172-0.506-0.264-0.662-0.645-1.088l-0.338-0.381 0.178-0.294c0.405-0.644 0.608-1.387 0.614-2.2 0-0.444-0.203-0.819-0.553-1.006l-0.264-0.144h-15.926l-0.264 0.144zM17.068 2.1c0 0.019-0.178 0.313-0.399 0.663-0.651 1.031-0.626 1.256 0.239 2.169 0.313 0.331 0.602 0.662 0.645 0.737 0.233 0.463-0.233 1.038-0.749 0.919-0.123-0.025-0.393-0.244-0.786-0.631-0.786-0.775-1.056-0.862-1.658-0.519-0.694 0.4-1.578 0.806-2.008 0.925-0.608 0.175-0.817 0.306-0.976 0.638-0.129 0.256-0.141 0.362-0.141 1.362 0 1.231-0.049 1.431-0.399 1.6-0.252 0.125-0.301 0.125-0.553 0-0.35-0.169-0.399-0.369-0.399-1.6 0-1-0.012-1.106-0.135-1.362-0.166-0.325-0.375-0.463-0.982-0.638-0.528-0.15-1.308-0.494-1.738-0.775-0.405-0.263-0.761-0.362-1.044-0.313-0.184 0.037-0.368 0.181-0.86 0.662-0.405 0.394-0.694 0.625-0.817 0.65-0.51 0.119-0.976-0.463-0.743-0.919 0.043-0.075 0.332-0.406 0.645-0.737 0.866-0.912 0.89-1.138 0.239-2.169-0.221-0.35-0.399-0.644-0.399-0.663 0-0.025 2.929-0.038 6.508-0.038s6.508 0.013 6.508 0.038z"></path>
<path fill="#ffa5ba" style="fill: var(--color5, #ffa5ba)" d="M0.485 13.206c-0.313 0.212-0.485 0.512-0.485 0.844 0 0.225 3.119 16.925 3.229 17.275 0.055 0.194 0.282 0.425 0.522 0.55 0.227 0.125 0.387 0.125 6.809 0.125s6.582 0 6.809-0.125c0.239-0.125 0.467-0.356 0.522-0.55 0.11-0.35 3.229-17.050 3.229-17.275 0-0.331-0.172-0.631-0.485-0.844l-0.209-0.144h-19.732l-0.209 0.144zM18.695 15.481c-0.061 0.5-0.418 1.587-0.682 2.081-1.283 2.375-3.714 3.819-6.729 3.988-2.278 0.131-4.206-0.331-5.82-1.394-0.933-0.612-1.713-1.45-2.265-2.438-0.307-0.544-0.712-1.712-0.774-2.237l-0.043-0.356h16.356l-0.043 0.356zM4.39 21.919c2.634 1.775 6.569 2.244 9.885 1.169 1.105-0.356 2.235-0.956 3.18-1.688 0.276-0.219 0.295-0.219 0.264-0.081-0.018 0.081-0.381 1.994-0.804 4.244s-0.78 4.156-0.798 4.231l-0.031 0.144h-11.051l-0.031-0.144c-0.018-0.075-0.375-1.981-0.798-4.231s-0.786-4.163-0.804-4.244c-0.031-0.137-0.012-0.137 0.264 0.081 0.16 0.125 0.491 0.356 0.724 0.519z"></path>
</symbol>
<symbol id="icon-made-mid" viewBox="0 0 32 32">
<path fill="#ffa5ba" style="fill: var(--color5, #ffa5ba)" d="M29.626 21.411c-1.292-0.458-2.382-0.344-3.242 0.018 0.145-0.877 0.47-1.832 1.17-2.481 0.431-0.4 0.456-1.074 0.056-1.505s-1.074-0.456-1.505-0.056c-1.229 1.14-1.706 2.748-1.874 4.081-0.32-0.144-0.673-0.253-1.058-0.311l1.89-9.83c0.060-0.312-0.022-0.634-0.225-0.879s-0.503-0.387-0.821-0.387h-0.204c0.094-0.5 0.141-0.997 0.137-1.47-0.016-1.994-0.903-3.495-2.374-4.017-1.41-0.5-2.59-0.35-3.507 0.066 0.145-0.976 0.494-2.063 1.282-2.794 0.431-0.4 0.456-1.074 0.056-1.505s-1.074-0.456-1.505-0.056c-1.32 1.225-1.815 2.965-1.982 4.386-0.735-0.348-1.644-0.527-2.708-0.33-1.094-1.571-2.613-2.296-4.089-1.942-1.451 0.349-2.358 1.115-2.901 1.962-0.41-0.899-0.712-2.001-0.452-3.036 0.143-0.57-0.203-1.149-0.773-1.292s-1.149 0.203-1.292 0.773c-0.439 1.746 0.095 3.476 0.729 4.758-1.016 0.137-2.117 0.65-3.049 1.866-0.578 0.755-0.773 1.698-0.596 2.7-0.173 0.065-0.329 0.173-0.449 0.318-0.202 0.245-0.285 0.567-0.225 0.879l3.809 19.809c0.096 0.501 0.535 0.864 1.046 0.864h15.237c0.511 0 0.949-0.362 1.046-0.864l0.038-0.195c0.287 0.198 0.596 0.363 0.927 0.487 1.266 0.471 2.447 0.278 3.044 0.118 0.316 0.085 0.795 0.179 1.364 0.179 0.506 0 1.084-0.075 1.68-0.297 2.36-0.879 3.615-3.839 3.596-6.178-0.015-1.904-0.866-3.339-2.276-3.839zM22.674 12.19c-0.49 4.705-4.452 7.91-9.971 7.91s-9.481-3.204-9.971-7.91h19.942zM16.032 7.515c0.184 0.349 0.536 0.567 0.93 0.567s0.746-0.218 0.93-0.567c0.029-0.048 0.29-0.466 0.769-0.777 0.629-0.408 1.35-0.46 2.203-0.157 0.851 0.302 0.952 1.518 0.956 2.027 0.004 0.463-0.064 0.962-0.191 1.453h-7.126c0.236-1.19 0.094-2.492-0.289-3.669 0.377 0.022 0.724 0.137 1.047 0.346 0.479 0.311 0.74 0.729 0.769 0.777zM3.077 8.724c0.55-0.719 1.182-1.068 1.932-1.069h0.002c0.57 0 1.016 0.208 1.066 0.232 0.341 0.189 0.749 0.172 1.079-0.037 0.331-0.211 0.51-0.592 0.481-0.983-0.006-0.077-0.116-1.893 1.983-2.397 0.876-0.211 1.625 0.754 1.906 1.178 0.807 1.22 1.221 3.108 0.777 4.413h-9.349c-0.141-0.443-0.179-0.943 0.122-1.336zM5.851 29.87l-2.111-10.978c0.138 0.133 0.281 0.263 0.427 0.389 2.208 1.901 5.239 2.948 8.535 2.948s6.328-1.047 8.535-2.948c0.052-0.044 0.102-0.090 0.152-0.135l-0.431 2.243c-0.020 0.007-0.041 0.013-0.061 0.021-1.41 0.5-2.261 1.935-2.276 3.839-0.009 1.164 0.297 2.483 0.898 3.622l-0.192 0.999h-13.477zM27.562 29.432c-0.943 0.351-1.881 0.017-1.916 0.005-0.25-0.097-0.518-0.099-0.768-0-0.009 0.004-0.96 0.352-1.917-0.005-1.338-0.498-2.223-2.556-2.21-4.165 0.004-0.466 0.095-1.578 0.858-1.849 0.349-0.124 0.661-0.175 0.939-0.175 1.108 0 1.657 0.812 1.782 1.024 0.184 0.35 0.535 0.569 0.931 0.569s0.747-0.219 0.931-0.569c0.156-0.265 0.977-1.468 2.721-0.849 0.763 0.271 0.854 1.383 0.858 1.849 0.013 1.609-0.872 3.667-2.21 4.166z"></path>
</symbol>
<symbol id="icon-made-right" viewBox="0 0 28 32">
<path fill="#ffa5ba" style="fill: var(--color5, #ffa5ba); stroke: var(--color5, #ffa5ba)" stroke="#ffa5ba" stroke-linejoin="miter" stroke-linecap="butt" stroke-miterlimit="4" stroke-width="0.3077" d="M0.667 11.16l0 0c0.587 2.696 1.894 5.088 3.953 7.163 1.839 1.86 3.455 2.99 6.008 4.163 0 0 0 0 0.001 0l1.238 0.581v8.47h1.73v-7.901l0.159 0.047c0.229 0.066 0.567 0.066 0.796 0l0.001-0 0.159-0.046v7.901h1.73v-8.481l1.179-0.536c2.469-1.138 4.263-2.372 6.008-4.141l0-0c2.786-2.829 4.217-6.052 4.217-9.561 0.012-3.851-2.010-7-5.213-8.076-0.689-0.24-1.054-0.274-2.316-0.262M0.667 11.16l13.614-8.305-0.098-0.072M0.667 11.16c-0.134-0.615-0.202-1.454-0.205-2.276-0.003-0.82 0.059-1.636 0.194-2.201 0.723-3.189 2.943-5.549 5.82-6.152M0.667 11.16l5.808-10.629M20.317 0.482h0c0 0-0 0-0 0zM20.317 0.482c-0.658 0.006-1.070 0.020-1.444 0.074-0.376 0.054-0.709 0.146-1.208 0.303l-0.002 0c-1.188 0.385-2.356 0.994-3.133 1.632l-0.001 0.001-0.346 0.291M14.183 2.783l-0.543-0.401c-1.672-1.23-3.385-1.829-5.396-1.911l-0.001-0c-0.347-0.012-0.718-0.012-1.036-0.001-0.312 0.010-0.586 0.030-0.733 0.063M14.183 2.783l-7.708-2.251M13.159 4.233l-0-0c-0.238-0.226-0.669-0.537-1.14-0.832-0.47-0.295-0.968-0.566-1.336-0.718-0.347-0.135-1.012-0.328-1.5-0.419-1.975-0.362-3.49 0.022-4.825 1.21l-0.001 0.001c-0.282 0.247-0.581 0.571-0.795 0.844-0.103 0.131-0.183 0.245-0.232 0.33 0.064 0.012 0.147 0.027 0.243 0.044 0.238 0.042 0.56 0.096 0.909 0.154 1.231 0.192 2.186 0.449 3.209 0.942 1.020 0.492 2.103 1.215 3.592 2.33l0.001 0.001c0.605 0.464 1.625 1.059 2.651 1.541h0l0.003 0.001c0.458 0.226 0.898 0.452 1.238 0.636 0.17 0.092 0.316 0.175 0.427 0.242 0.056 0.034 0.104 0.064 0.142 0.091 0.035 0.024 0.072 0.052 0.098 0.080 0.128 0.137 0.234 0.274 0.318 0.447s0.141 0.372 0.182 0.631c0.081 0.512 0.098 1.281 0.098 2.571 0 1.17 0.003 1.784 0.034 2.135 0.015 0.175 0.036 0.271 0.061 0.332 0.022 0.055 0.049 0.089 0.096 0.135 0.246 0.24 0.583 0.23 0.762 0.031l-0-0 0.004-0.004c0.050-0.052 0.097-0.135 0.125-0.456 0.027-0.32 0.033-0.837 0.033-1.723 0-1.173 0.029-1.886 0.159-2.378 0.067-0.251 0.161-0.448 0.292-0.622 0.13-0.172 0.293-0.314 0.488-0.459l0.002-0.001c0.197-0.142 0.368-0.235 0.647-0.308 0.27-0.071 0.643-0.124 1.24-0.193l0.001-0c1.864-0.207 2.941-0.447 4.23-0.937h0c0.405-0.154 0.704-0.268 0.927-0.371 0.225-0.103 0.357-0.188 0.439-0.273 0.076-0.079 0.115-0.168 0.134-0.302 0.020-0.142 0.014-0.324 0.002-0.588h-0l-0-0.003c-0.012-0.46-0.128-1.233-0.256-1.707l-0-0.001c-0.709-2.681-2.921-4.56-5.316-4.56-1.787 0-3.967 0.84-5.314 2.061l-0.001 0.001c-0.22 0.197-0.405 0.352-0.572 0.459s-0.327 0.175-0.495 0.182c-0.17 0.007-0.327-0.050-0.486-0.149-0.156-0.098-0.323-0.242-0.517-0.425zM3.187 4.621c-0.002-0.001-0.003-0.001-0.003-0.001s0.001 0 0.003 0.001zM9.013 8.597l-0.001-0.001c-1.232-0.914-2.577-1.584-3.762-1.879-0.543-0.131-1.235-0.239-1.803-0.295-0.284-0.028-0.533-0.042-0.715-0.040-0.091 0.001-0.16 0.006-0.206 0.015-0.007 0.001-0.013 0.002-0.018 0.004-0.049 0.096-0.1 0.264-0.148 0.496-0.052 0.252-0.095 0.561-0.127 0.893-0.063 0.665-0.077 1.407-0.019 1.947 0.316 2.926 1.588 5.398 4.032 7.743l0 0c1.927 1.865 4.325 3.319 7.043 4.235v0l0.002 0.001 0.862 0.305 0.874-0.306c2.542-0.871 5.036-2.326 6.844-4.018 1.246-1.168 1.889-1.964 2.711-3.37l0.001-0.001c0.254-0.428 0.603-1.203 0.874-1.892 0.135-0.344 0.248-0.661 0.32-0.899 0.026-0.086 0.045-0.159 0.058-0.218-0.042 0.011-0.091 0.025-0.145 0.041-0.2 0.059-0.473 0.151-0.767 0.259l-0.001 0c-1.188 0.432-2.967 0.816-4.402 0.944l-0.001 0c-0.021 0.002-0.042 0.004-0.063 0.005-0.323 0.027-0.548 0.045-0.715 0.089-0.166 0.044-0.252 0.106-0.311 0.216-0.067 0.126-0.107 0.328-0.127 0.676-0.018 0.322-0.018 0.746-0.018 1.313 0 0.039 0 0.080 0 0.121 0 1.098-0.014 1.745-0.096 2.184-0.042 0.223-0.102 0.398-0.189 0.553-0.087 0.154-0.196 0.283-0.328 0.417-0.235 0.247-0.47 0.425-0.733 0.54s-0.547 0.164-0.871 0.164c-0.5 0-0.927-0.099-1.284-0.317s-0.63-0.547-0.835-0.983l-0-0c-0.105-0.223-0.164-0.436-0.198-0.864-0.033-0.423-0.042-1.067-0.042-2.156 0-0.906-0.009-1.537-0.031-1.957-0.011-0.21-0.025-0.363-0.042-0.47-0.008-0.053-0.017-0.091-0.025-0.117-0.006-0.018-0.009-0.025-0.010-0.027 0 0 0 0 0 0-0.001-0.001-0.007-0.008-0.023-0.020s-0.039-0.029-0.068-0.048c-0.058-0.037-0.134-0.082-0.225-0.13-0.182-0.097-0.415-0.208-0.654-0.31-1.006-0.42-2.333-1.164-3.138-1.761-0.296-0.219-0.959-0.703-1.48-1.084l-0.001-0.001zM2.49 6.407c-0.002 0.001-0.002 0.001 0-0l-0 0zM2.526 6.369l-0.001 0.002c0-0.001 0.001-0.001 0.001-0.002z"></path>
</symbol>
<symbol id="icon-arrow-right" viewBox="0 0 32 32">
<path d="M19.414 27.414l10-10c0.781-0.781 0.781-2.047 0-2.828l-10-10c-0.781-0.781-2.047-0.781-2.828 0s-0.781 2.047 0 2.828l6.586 6.586h-19.172c-1.105 0-2 0.895-2 2s0.895 2 2 2h19.172l-6.586 6.586c-0.39 0.39-0.586 0.902-0.586 1.414s0.195 1.024 0.586 1.414c0.781 0.781 2.047 0.781 2.828 0z"></path>
</symbol>
<!-- _____________________________________________________________ -->
<!-- SECTION ADVANTAGES-KG -->
<symbol id="leche" width="50" height="50" viewBox="0 0 50 50">
<path d="M3.64538 0.224636C3.09858 0.517605 2.78201 1.10354 2.78201 1.7969C2.7916 3.06643 3.10817 4.22854 3.74131 5.2344L4.01951 5.69339L3.49189 6.28909C2.89713 6.95315 2.75323 7.19729 2.48463 7.98831C2.26399 8.63284 2.2448 9.80472 2.43666 10.459C3.10817 12.7051 5.33375 14.0039 7.51137 13.4278C8.25003 13.2324 8.7009 12.9883 9.3916 12.4024L9.97678 11.9141L10.5236 12.1875C10.8306 12.3438 11.3486 12.5684 11.6843 12.6953L12.2791 12.9102V14.0039C12.2791 15.7324 12.634 16.7578 13.5454 17.6856C14.4567 18.6133 15.8861 19.0918 17.1236 18.877C18.0061 18.7207 18.8695 18.2813 19.4547 17.6856C20.366 16.7578 20.721 15.7324 20.721 14.0039V12.9102L21.3253 12.6953C21.6515 12.5684 22.1695 12.3438 22.4765 12.1875L23.0233 11.9141L23.6085 12.4024C24.2992 12.9883 24.75 13.2324 25.4887 13.4278C27.6663 14.0039 29.8919 12.7051 30.5634 10.459C30.7553 9.80472 30.7361 8.63284 30.5154 7.98831C30.2468 7.19729 30.1029 6.95315 29.5082 6.28909L28.9806 5.69339L29.2588 5.2344C29.8919 4.22854 30.2085 3.06643 30.2181 1.7969C30.2181 1.10354 29.9015 0.517605 29.3547 0.224636L28.9422 2.67029e-05H16.5H4.05788L3.64538 0.224636ZM26.6686 3.28128C26.6686 3.31057 26.3904 3.76956 26.0451 4.31643C25.0282 5.92776 25.0666 6.27932 26.4192 7.7051C26.9085 8.22268 27.3593 8.74026 27.4265 8.85745C27.791 9.5801 27.062 10.4785 26.2561 10.293C26.0643 10.2539 25.6422 9.91214 25.0282 9.30667C23.8003 8.09573 23.3782 7.95901 22.4381 8.49612C21.3541 9.12112 19.9727 9.75589 19.3012 9.94143C18.3515 10.2149 18.0253 10.4199 17.7759 10.9375C17.5745 11.3379 17.5553 11.5039 17.5553 13.0664C17.5553 14.9903 17.4785 15.3028 16.9317 15.5664C16.5384 15.7617 16.4617 15.7617 16.0683 15.5664C15.5215 15.3028 15.4448 14.9903 15.4448 13.0664C15.4448 11.5039 15.4256 11.3379 15.2338 10.9375C14.9747 10.4297 14.6486 10.2149 13.6989 9.94143C12.8739 9.70706 11.6556 9.16995 10.984 8.7305C10.3509 8.32034 9.79451 8.16409 9.35323 8.24221C9.06544 8.30081 8.77765 8.52542 8.01021 9.27737C7.37707 9.89261 6.9262 10.2539 6.73433 10.293C5.93811 10.4785 5.20904 9.57034 5.57358 8.85745C5.64073 8.74026 6.0916 8.22268 6.58085 7.7051C7.93346 6.27932 7.97184 5.92776 6.95497 4.31643C6.60963 3.76956 6.33143 3.31057 6.33143 3.28128C6.33143 3.24221 10.9073 3.22268 16.5 3.22268C22.0928 3.22268 26.6686 3.24221 26.6686 3.28128Z"
fill="#FFA5BA"
/>
<path d="M0.757849 20.6348C0.268605 20.9668 0 21.4355 0 21.9531C0 22.3047 4.87326 48.3984 5.04593 48.9453C5.13227 49.248 5.48721 49.6094 5.86134 49.8047C6.21628 50 6.4657 50 16.5 50C26.5343 50 26.7837 50 27.1387 49.8047C27.5128 49.6094 27.8677 49.248 27.9541 48.9453C28.1267 48.3984 33 22.3047 33 21.9531C33 21.4355 32.7314 20.9668 32.2421 20.6348L31.916 20.4102H16.5H1.08401L0.757849 20.6348ZM29.2108 24.1895C29.1148 24.9707 28.5584 26.6699 28.1459 27.4414C26.141 31.1523 22.3421 33.4082 17.632 33.6719C14.073 33.877 11.0608 33.1543 8.53779 31.4941C7.07965 30.5371 5.86134 29.2285 4.99796 27.6855C4.51831 26.8359 3.88517 25.0098 3.78924 24.1895L3.72209 23.6328H16.5H29.2779L29.2108 24.1895ZM6.85901 34.248C10.9744 37.0215 17.1235 37.7539 22.3038 36.0742C24.0305 35.5176 25.7956 34.5801 27.273 33.4375C27.7047 33.0957 27.7334 33.0957 27.6855 33.3105C27.6567 33.4375 27.0907 36.4258 26.4288 39.9414C25.7669 43.457 25.2105 46.4355 25.1817 46.5527L25.1337 46.7773H16.5H7.86628L7.81831 46.5527C7.78953 46.4355 7.23314 43.457 6.57122 39.9414C5.9093 36.4258 5.34331 33.4375 5.31453 33.3105C5.26657 33.0957 5.29535 33.0957 5.72703 33.4375C5.97645 33.6328 6.49448 33.9941 6.85901 34.248Z"
fill="#FFA5BA"
/>
</symbol>

<symbol id="manzanas" width="50" height="50" viewBox="0 0 50 50">
<path d="M46.1382 33.4539C44.1195 32.7379 42.4165 32.917 41.0722 33.4822C41.2981 32.1115 41.8071 30.6197 42.8996 29.6061C43.5734 28.9812 43.6128 27.9285 42.9879 27.2547C42.3633 26.5812 41.3104 26.5416 40.6365 27.1665C38.716 28.948 37.9715 31.461 37.7084 33.5431C37.2084 33.3187 36.6567 33.1473 36.0555 33.0566L39.0089 17.6978C39.1027 17.2103 38.9739 16.7066 38.6577 16.3239C38.3417 15.9413 37.8714 15.7197 37.3749 15.7197H37.056C37.2025 14.9377 37.2764 14.1615 37.2705 13.4231C37.2458 10.3079 35.8592 7.96146 33.5616 7.14648C31.3589 6.365 29.5153 6.59985 28.082 7.24968C28.3092 5.7251 28.8542 4.0256 30.0847 2.88419C30.7584 2.25927 30.7978 1.20658 30.1729 0.532842C29.5483 -0.140727 28.4953 -0.180289 27.8215 0.444627C25.7586 2.35843 24.9857 5.07779 24.7249 7.29833C23.5766 6.75439 22.1565 6.4756 20.4929 6.78234C18.7833 4.32712 16.4103 3.19547 14.1032 3.7485C11.8353 4.29311 10.4188 5.49126 9.57052 6.81432C8.92961 5.40927 8.45807 3.68722 8.8648 2.07038C9.08887 1.17914 8.54813 0.275098 7.65705 0.0508556C6.76547 -0.173892 5.86177 0.367354 5.63753 1.2586C4.95116 3.98722 5.78534 6.68924 6.77692 8.69311C5.18921 8.90759 3.46867 9.70826 2.01345 11.6086C1.10992 12.7887 0.805035 14.262 1.08231 15.8266C0.812274 15.9276 0.569008 16.0965 0.381129 16.3239C0.0651359 16.7066 -0.0638203 17.2103 0.0299508 17.6978L5.98163 48.6502C6.13231 49.4335 6.81783 49.9998 7.61564 49.9998H31.423C32.2209 49.9998 32.9064 49.4335 33.0571 48.6502L33.1156 48.3456C33.5643 48.6547 34.0463 48.9133 34.5636 49.1061C36.5422 49.8428 38.3863 49.5404 39.3195 49.2904C39.8131 49.4227 40.5618 49.5697 41.4505 49.5697C42.2414 49.5697 43.1436 49.4532 44.0752 49.1061C47.7634 47.732 49.7229 43.1071 49.6939 39.4529C49.6707 36.478 48.3414 34.2354 46.1382 33.4539ZM35.2761 19.0475C34.5099 26.3997 28.3197 31.4061 19.6963 31.4061C11.0729 31.4061 4.88264 26.3995 4.11648 19.0475H35.2761ZM24.8976 11.7419C25.1855 12.2865 25.735 12.6275 26.3515 12.6275C26.968 12.6275 27.5173 12.2865 27.8054 11.7419C27.8507 11.6669 28.2587 11.014 29.0072 10.5281C29.9902 9.89042 31.116 9.81011 32.449 10.2828C33.7783 10.7542 33.9363 12.6544 33.9427 13.4493C33.9485 14.1736 33.8422 14.9517 33.6449 15.7195H22.5111C22.8793 13.861 22.6582 11.8261 22.0597 9.98722C22.6481 10.0214 23.1907 10.2009 23.6954 10.5281C24.4443 11.014 24.852 11.6667 24.8976 11.7419ZM4.65588 13.6315C5.51564 12.5088 6.50318 11.9625 7.67524 11.9613H7.67843C8.56968 11.9613 9.26615 12.2857 9.3446 12.3238C9.87726 12.6199 10.5146 12.5928 11.03 12.2655C11.5475 11.9365 11.8269 11.3413 11.7816 10.7296C11.7727 10.6093 11.6012 7.77123 14.8803 6.98402C16.2495 6.65473 17.42 8.16146 17.8587 8.82476C19.12 10.7317 19.7672 13.6805 19.0725 15.7194H4.46497C4.24493 15.028 4.18567 14.2458 4.65588 13.6315ZM8.99039 46.6721L5.69207 29.5195C5.90823 29.7273 6.13079 29.93 6.35992 30.1273C9.80958 33.0978 14.5459 34.7339 19.6963 34.7339C24.8466 34.7339 29.583 33.098 33.0326 30.1273C33.1131 30.0581 33.1917 29.9872 33.2705 29.9167L32.5966 33.4217C32.5646 33.4327 32.5331 33.4426 32.501 33.4539C30.2978 34.2354 28.9685 36.478 28.9451 39.4529C28.9306 41.2722 29.4096 43.332 30.3488 45.1115L30.0488 46.6721H8.99039ZM42.9136 45.9877C41.4395 46.5367 39.9747 46.015 39.9202 45.9951C39.5301 45.8441 39.1101 45.8404 38.7205 45.9946C38.7057 46.0004 37.2204 46.5445 35.7256 45.9876C33.6357 45.2091 32.2528 41.9936 32.2727 39.4791C32.2786 38.7514 32.4205 37.0131 33.6135 36.5901C34.1594 36.3965 34.647 36.317 35.0805 36.317C36.8109 36.317 37.6702 37.5855 37.865 37.9174C38.1523 38.4642 38.7017 38.8066 39.3197 38.8066C39.9379 38.8066 40.487 38.4638 40.7744 37.9174C41.018 37.5025 42.3003 35.6238 45.0259 36.5901C46.2187 37.013 46.3608 38.7514 46.3666 39.4791C46.3863 41.9938 45.0035 45.2093 42.9136 45.9877Z"
fill="#FFA5BA"
/>
</symbol>

<symbol id="corazon" width="50" height="50" viewBox="0 0 50 50">
<path d="M1.08336 18.1357L1.08339 18.1359C2.03783 22.5167 4.16167 26.4039 7.50728 29.775C10.4958 32.798 13.1215 34.6343 17.2695 36.5405C17.2698 36.5407 17.2702 36.5408 17.2705 36.541L19.2825 37.4855V44.1539V51V51.25H19.5325H20.6883H21.8442H22.0942V51V44.5478V38.4104L22.352 38.4857L22.3533 38.486C22.7258 38.5927 23.2743 38.5927 23.6468 38.486L23.6481 38.4857L23.9059 38.4104V44.5478V51V51.25H24.1559H25.3118H26.4676H26.7176V51V44.1539V37.4688L28.6324 36.5976L28.6336 36.5971C32.6458 34.7477 35.5611 32.7429 38.3968 29.8684L38.397 29.8682C42.9244 25.2711 45.2497 20.0338 45.2499 14.3322C45.2694 8.07514 41.9836 2.9571 36.7781 1.2093C35.6586 0.820095 35.0649 0.764313 33.0152 0.783142M1.08336 18.1357L23.2064 4.63963L23.0478 4.52232M1.08336 18.1357C0.866368 17.137 0.755017 15.7722 0.750166 14.4378C0.745322 13.1054 0.846546 11.7799 1.06487 10.8612C2.23925 5.67977 5.84783 1.84365 10.5219 0.863762M1.08336 18.1357L10.5219 0.863762M33.0152 0.783142L33.0175 1.03313L33.0153 0.783142C33.0153 0.783142 33.0152 0.783142 33.0152 0.783142ZM33.0152 0.783142C31.9463 0.792515 31.2762 0.815857 30.668 0.902878C30.0569 0.990295 29.5159 1.14087 28.7047 1.39474L28.7022 1.39553C26.7723 2.02188 24.8741 3.01043 23.6119 4.04729L23.6096 4.04922L23.0478 4.52232M23.0478 4.52232L22.1662 3.87062L22.1657 3.87026C19.4484 1.87175 16.6649 0.897934 13.3973 0.764584L13.3955 0.764507C12.8315 0.745579 12.2288 0.745567 11.7127 0.762161C11.2054 0.778469 10.7601 0.81131 10.5219 0.863762M23.0478 4.52232L10.5219 0.863762M21.3836 6.87937L21.383 6.87875C20.9969 6.51179 20.2963 6.00657 19.5297 5.5261C18.7658 5.04729 17.9568 4.60583 17.3591 4.36006C16.7958 4.14095 15.7146 3.82689 14.9213 3.67976C11.7123 3.09176 9.25032 3.71591 7.0805 5.64641L7.07887 5.64783C6.62023 6.04881 6.13464 6.5764 5.78629 7.01869C5.61905 7.23104 5.48885 7.4169 5.40893 7.55517C5.51357 7.57449 5.64727 7.59843 5.80405 7.62592C6.19043 7.69368 6.71402 7.78254 7.28127 7.87616C9.2817 8.18822 10.8334 8.60649 12.4963 9.40769C14.1541 10.2064 15.9134 11.3814 18.3338 13.1934L18.3362 13.1952C19.3188 13.9496 20.9776 14.9161 22.644 15.6994L22.6441 15.6994L22.6483 15.7014C23.3918 16.0681 24.1077 16.4354 24.6604 16.7352C24.9365 16.8849 25.1739 17.0189 25.3545 17.1282C25.4447 17.1827 25.5229 17.2325 25.5856 17.2759C25.6429 17.3156 25.7028 17.3604 25.7447 17.4054C25.9529 17.6278 26.1254 17.8511 26.2618 18.132C26.3976 18.4117 26.4917 18.7367 26.558 19.1573C26.6893 19.9895 26.7176 21.2393 26.7176 23.3344C26.7176 25.235 26.7227 26.2337 26.7721 26.8039C26.7967 27.0883 26.8309 27.2438 26.8706 27.3435C26.9061 27.4328 26.9497 27.4875 27.0273 27.563C27.4276 27.9528 27.9743 27.937 28.2659 27.6126L28.2658 27.6125L28.2718 27.6063C28.3528 27.5221 28.43 27.3875 28.4749 26.865C28.5195 26.3458 28.5293 25.5045 28.5293 24.0659C28.5293 22.1605 28.5759 21.0007 28.7881 20.2013C28.8964 19.7935 29.049 19.4727 29.2629 19.1908C29.4748 18.9115 29.7391 18.6807 30.0555 18.4449L30.0585 18.4427C30.3778 18.212 30.6559 18.0609 31.1093 17.9417C31.5483 17.8262 32.1534 17.7402 33.1236 17.628L33.1248 17.6278C36.1543 17.2918 37.9047 16.9016 39.9986 16.1046L39.9988 16.1046C40.6563 15.8551 41.1423 15.6684 41.5055 15.5013C41.871 15.3332 42.0857 15.1962 42.2181 15.057C42.3408 14.928 42.4051 14.7839 42.4351 14.566C42.4669 14.3349 42.458 14.0392 42.4385 13.6113L42.4384 13.6113L42.4383 13.6061C42.4195 12.8586 42.2302 11.6029 42.023 10.8326L42.0227 10.8316C40.8708 6.47433 37.2753 3.42135 33.3835 3.42135C30.4793 3.42135 26.9366 4.78597 24.7476 6.77024L24.7464 6.77132C24.3892 7.09093 24.0876 7.34282 23.8172 7.51701C23.5457 7.69184 23.2855 7.80185 23.0122 7.81249C22.7352 7.82328 22.4803 7.73079 22.223 7.56975C21.9696 7.4112 21.698 7.176 21.3836 6.87937ZM5.17892 7.50983C5.17591 7.50893 5.17425 7.50854 5.17447 7.50864C5.17464 7.50872 5.17602 7.50911 5.17892 7.50983ZM14.646 13.9706L14.6445 13.9695C12.6422 12.4842 10.4569 11.3949 8.53117 10.9168C7.64875 10.7044 6.52412 10.5279 5.6016 10.4374C5.13982 10.3921 4.73527 10.369 4.44044 10.3726C4.29177 10.3744 4.18014 10.383 4.10621 10.3962C4.09457 10.3982 4.08479 10.4002 4.07669 10.4021C3.99781 10.5576 3.91368 10.8319 3.83642 11.2086C3.75233 11.6185 3.68179 12.1209 3.6306 12.6599C3.528 13.7401 3.50506 14.946 3.59899 15.824C4.11205 20.5782 6.18011 24.5959 10.1504 28.4058L10.1512 28.4065C13.2827 31.4369 17.1801 33.8 21.5966 35.2891L21.5966 35.2891L21.6001 35.2904L23.0006 35.7862L24.4202 35.29L24.4216 35.2895C28.553 33.8742 32.6054 31.5093 35.5437 28.76C37.5691 26.8624 38.6131 25.5682 39.9487 23.2833L39.9497 23.2817C40.3629 22.5867 40.9301 21.3265 41.3694 20.2069C41.5885 19.6486 41.773 19.1322 41.8892 18.7455C41.9309 18.6064 41.9627 18.4878 41.9842 18.392C41.9163 18.4097 41.8371 18.4319 41.7478 18.4583C41.4221 18.5549 40.9795 18.703 40.5018 18.8798L40.5005 18.8803C38.5706 19.5825 35.6787 20.2056 33.3479 20.4136L33.3463 20.4137C33.3114 20.4166 33.2773 20.4194 33.2437 20.4222C32.7186 20.4653 32.3529 20.4954 32.081 20.5667C31.8112 20.6375 31.6718 20.7394 31.5764 20.9178C31.4673 21.1218 31.402 21.4506 31.3702 22.017C31.3408 22.54 31.3409 23.2291 31.341 24.1514C31.3411 24.2155 31.3411 24.2808 31.3411 24.3473C31.3411 26.1308 31.3179 27.1836 31.1851 27.8958C31.1175 28.2584 31.0201 28.5423 30.8784 28.7952C30.7377 29.0462 30.5596 29.2551 30.3461 29.4727C29.9644 29.8735 29.582 30.1631 29.1543 30.3508C28.7255 30.5389 28.2659 30.618 27.7391 30.618C26.9259 30.618 26.2322 30.4566 25.6534 30.1031C25.0736 29.749 24.6298 29.2148 24.2957 28.5051L24.2956 28.5049C24.1255 28.1425 24.0287 27.7972 23.9741 27.1005C23.9202 26.4137 23.9059 25.3671 23.9059 23.597C23.9059 22.1247 23.8914 21.0989 23.8557 20.4168C23.8378 20.0751 23.8148 19.8265 23.7871 19.6538C23.7733 19.5674 23.7591 19.5058 23.7459 19.4639C23.7369 19.4352 23.7305 19.4227 23.7292 19.4202C23.7292 19.4202 23.7292 19.4202 23.7292 19.4202C23.7277 19.4185 23.7175 19.4077 23.6916 19.3873C23.6646 19.366 23.6279 19.34 23.5811 19.3097C23.4874 19.249 23.3629 19.1771 23.2147 19.098C22.919 18.9404 22.5407 18.7607 22.1513 18.5942C20.5163 17.9118 18.3608 16.7021 17.0528 15.7327C16.5722 15.3771 15.495 14.5905 14.6471 13.9714L14.646 13.9706ZM4.04543 10.4111C4.0423 10.4125 4.04291 10.4125 4.04606 10.4109L4.04543 10.4111ZM4.10544 10.3503L4.10365 10.3533C4.10424 10.3523 4.10485 10.3513 4.10544 10.3503Z"
fill="#FFA5BA"
stroke="#FFA5BA"
stroke-width="0.5"
/>
</symbol>
<!-- FIN SECTION ADVANTAGES-KG -->
<!-- _____________________________________________________________ -->

</defs>
</svg>
